<mxfile host="app.diagrams.net" modified="2023-04-13T03:04:12.487Z" agent="Mozilla/5.0 (Macintosh; Intel Mac OS X 10_15_7) AppleWebKit/537.36 (KHTML, like Gecko) Chrome/112.0.0.0 Safari/537.36 Edg/112.0.1722.39" version="21.1.5" etag="m7WW4hqnwZVSNQ7fZxdZ" type="github">
  <diagram name="Page-1" id="uc9s_UcY4Auc1ZfcFQ-4">
    <mxGraphModel>
      <root>
        <mxCell id="0" />
        <mxCell id="1" parent="0" />
      </root>
    </mxGraphModel>
  </diagram>
</mxfile>
